<?xml version="1.0" standalone="no"?>
<!DOCTYPE svg PUBLIC "-//W3C//DTD SVG 20010904//EN"
 "http://www.w3.org/TR/2001/REC-SVG-20010904/DTD/svg10.dtd">
<svg version="1.0" xmlns="http://www.w3.org/2000/svg"
 width="450.000000pt" height="800.000000pt" viewBox="0 0 450.000000 800.000000"
 preserveAspectRatio="xMidYMid meet">

<g transform="translate(0.000000,800.000000) scale(0.100000,-0.100000)"
fill="#000000" stroke="none">
<path d="M2440 5930 c-14 -4 -19 -8 -12 -9 7 -1 10 -6 6 -12 -5 -9 1 -10 20
-5 25 6 26 5 14 -16 -7 -13 -17 -26 -23 -30 -5 -4 8 -4 30 0 22 4 70 7 107 7
55 0 71 -4 88 -21 l21 -21 -93 -71 c-51 -39 -110 -85 -130 -102 -20 -17 -39
-26 -42 -21 -3 5 7 21 24 34 16 14 30 29 30 33 0 5 -20 -12 -45 -36 -25 -24
-45 -50 -45 -56 0 -7 -13 -23 -29 -36 -18 -14 -39 -50 -56 -93 -15 -38 -30
-73 -34 -77 -10 -10 -205 13 -213 25 -4 7 -8 51 -8 99 0 48 -5 99 -10 114 -16
41 -18 26 -7 -41 5 -33 7 -89 3 -125 l-7 -66 -72 -13 c-40 -7 -82 -19 -94 -27
-12 -8 -34 -14 -48 -14 -27 0 -98 32 -127 57 -10 9 -26 13 -37 10 -11 -3 -22
0 -24 7 -2 6 -8 8 -12 4 -5 -5 -1 -16 7 -25 8 -10 18 -26 21 -36 4 -9 15 -20
24 -24 10 -3 29 -18 43 -31 l25 -25 -37 6 c-23 3 -38 2 -38 -4 0 -6 -10 -9
-22 -8 -29 3 -68 -9 -68 -22 0 -5 5 -9 10 -9 16 0 11 -27 -6 -34 -15 -6 -15
-8 -1 -24 12 -13 13 -22 6 -32 -8 -11 -12 -12 -16 -2 -7 18 -36 15 -29 -3 4
-11 -3 -17 -25 -22 -22 -4 -29 -10 -26 -22 11 -40 11 -46 0 -44 -12 3 -18 -10
-14 -31 1 -4 -9 -6 -23 -2 -16 4 -26 1 -30 -9 -3 -8 -13 -15 -21 -15 -9 0 -13
5 -10 10 3 6 -1 10 -10 10 -9 0 -14 4 -11 9 3 5 -9 11 -27 14 -24 3 -37 -1
-53 -19 -16 -16 -19 -25 -11 -33 8 -8 3 -11 -16 -11 -17 0 -27 -5 -26 -12 2
-13 -5 -37 -23 -75 -6 -12 -7 -30 -3 -40 13 -29 11 -85 -3 -90 -7 -3 -19 0
-27 7 -10 9 -15 9 -15 1 0 -6 4 -11 9 -11 13 0 71 -50 71 -61 0 -5 -15 -9 -32
-10 -18 0 -27 -3 -20 -6 18 -7 15 -20 -8 -26 -21 -5 -37 8 -20 16 6 3 5 4 -2
3 -7 -1 -14 -17 -16 -34 -3 -25 0 -31 12 -26 11 4 16 1 16 -10 0 -9 -6 -17
-12 -17 -7 -1 -20 -2 -28 -3 -11 -1 -14 -12 -13 -39 l1 -38 -54 30 c-30 16
-54 26 -54 21 0 -10 76 -60 92 -60 7 0 24 -9 38 -20 23 -18 23 -20 5 -20 -18
-1 -17 -2 5 -15 14 -8 21 -14 16 -15 -5 0 -1 -9 9 -20 17 -19 17 -20 -6 -45
-24 -25 -59 -34 -59 -15 0 17 -14 10 -35 -17 -11 -16 -19 -44 -20 -68 l0 -40
-85 2 c-47 1 -186 7 -310 15 -302 17 -346 17 -342 -2 2 -8 -3 -77 -12 -155 -8
-77 -20 -205 -27 -285 -6 -80 -15 -181 -20 -225 -18 -156 -31 -302 -59 -635
-5 -58 -16 -179 -24 -270 -9 -91 -21 -248 -26 -350 -6 -102 -15 -221 -20 -265
-5 -44 -14 -141 -20 -215 -6 -74 -14 -189 -20 -255 -5 -66 -10 -132 -10 -146
0 -17 -14 -41 -40 -68 l-40 -41 0 -670 0 -670 720 0 719 0 6 38 c3 20 15 71
26 112 10 41 21 84 23 95 6 33 26 109 35 130 32 75 60 192 96 405 10 60 38
178 50 214 8 22 12 43 9 48 -3 5 2 39 12 76 9 37 18 79 19 94 1 14 7 33 13 41
7 8 15 29 18 48 4 19 14 42 22 52 8 9 11 17 7 17 -5 0 2 11 15 25 13 14 31 25
39 25 14 0 14 1 1 10 -8 5 -10 10 -5 10 6 0 17 -4 25 -9 20 -14 30 -4 21 21
-4 12 -3 31 3 43 9 19 14 13 52 -63 43 -89 68 -103 29 -17 -31 68 -36 108 -12
113 14 3 17 -1 12 -21 -4 -14 -2 -28 4 -31 6 -4 11 -2 11 3 0 25 17 7 40 -44
19 -42 30 -55 46 -55 12 0 33 -9 47 -20 16 -13 32 -18 44 -13 15 6 16 5 5 -9
-9 -11 -10 -18 -2 -23 5 -3 10 -1 10 4 0 6 4 11 10 11 5 0 7 -7 3 -15 -3 -10
-1 -15 7 -13 12 3 17 -4 41 -57 8 -16 20 -35 27 -41 8 -5 15 -22 15 -36 1 -14
5 -24 8 -22 4 2 15 -18 25 -44 26 -64 27 -69 14 -52 -9 11 -13 12 -17 3 -6
-16 -23 -17 -23 -2 0 16 -24 36 -38 31 -7 -2 -16 5 -19 17 -6 24 -43 29 -43 6
0 -8 24 -39 53 -69 28 -30 77 -83 107 -118 144 -168 331 -282 434 -265 18 3
55 20 82 37 27 18 41 29 32 26 -10 -3 -18 -1 -18 5 0 5 -11 7 -25 3 -17 -4
-25 -2 -25 7 0 9 -14 15 -37 17 -21 1 -42 7 -47 12 -6 6 -20 10 -32 10 -12 0
-46 18 -75 40 -30 22 -59 40 -66 40 -7 0 -13 6 -13 13 0 7 -10 17 -22 22 -13
6 -27 19 -33 30 -5 12 -25 36 -42 55 -18 19 -33 43 -33 53 0 9 -4 17 -10 17
-6 0 -6 9 -1 23 16 41 -17 156 -70 247 -5 8 -12 22 -16 30 -4 8 -13 21 -20 28
-7 7 -13 27 -13 43 0 16 -4 29 -9 29 -13 0 -24 56 -15 71 5 9 11 7 21 -6 12
-18 13 -18 13 -1 0 28 21 61 30 46 5 -8 10 -3 14 15 7 27 -3 51 -11 28 -7 -19
-33 10 -33 36 0 11 -4 23 -10 26 -5 3 -10 17 -10 30 0 13 -4 27 -10 30 -12 7
-14 45 -2 45 4 0 15 -17 24 -37 15 -34 18 -36 23 -17 5 15 13 20 24 17 13 -3
22 4 31 26 7 17 17 28 22 25 6 -4 6 -9 -1 -14 -9 -5 -8 -10 4 -20 11 -9 15 -9
15 -1 0 9 5 9 21 1 11 -7 37 -9 58 -5 31 5 41 2 64 -19 16 -15 35 -26 43 -26
7 0 14 -8 14 -17 0 -10 7 -27 16 -38 13 -17 16 -18 24 -5 8 12 11 11 16 -7 4
-16 14 -23 30 -23 13 0 24 -5 24 -11 0 -5 5 -7 12 -3 7 5 8 3 3 -6 -4 -7 -2
-16 6 -21 10 -6 11 -9 2 -9 -7 0 -13 -4 -13 -10 0 -5 9 -10 19 -10 11 0 23 -5
27 -11 5 -9 -1 -10 -22 -5 -16 4 -24 3 -18 -1 17 -13 25 -43 9 -37 -30 12 -21
-32 14 -64 29 -27 33 -35 21 -42 -13 -8 -13 -10 1 -10 9 0 25 -11 35 -25 13
-18 25 -23 39 -19 16 5 18 4 8 -7 -19 -19 -16 -32 6 -26 10 2 26 0 35 -5 11
-6 26 -5 44 4 33 16 66 4 81 -29 6 -13 15 -23 21 -23 6 0 9 -4 6 -9 -3 -5 1
-11 9 -15 8 -3 17 -1 20 3 2 5 16 11 30 13 20 4 23 3 14 -8 -9 -11 -7 -14 10
-14 11 0 21 5 21 10 0 11 30 13 54 4 9 -3 13 -10 10 -15 -3 -5 -3 -9 0 -9 6 0
14 15 103 191 34 68 70 155 81 194 11 39 21 63 25 55 3 -8 3 -1 0 16 -3 18 0
35 6 38 6 4 11 14 11 23 0 17 36 53 54 53 6 0 4 5 -4 10 -13 8 -13 11 -1 19 7
5 11 13 8 18 -3 5 0 10 8 10 8 0 15 -5 16 -11 0 -6 5 2 10 19 5 19 5 31 -3 36
-7 5 -7 21 1 56 14 55 19 282 7 301 -5 8 0 12 13 12 20 0 26 -14 22 -47 -1 -6
3 -14 8 -18 6 -3 8 -12 4 -20 -3 -9 1 -15 8 -15 8 0 20 -12 27 -27 15 -32 16
-57 2 -48 -5 3 -10 -3 -10 -15 0 -12 4 -18 10 -15 6 4 10 -13 10 -44 0 -42 -3
-51 -17 -51 -14 0 -15 -2 -5 -9 13 -8 13 -84 0 -96 -3 -4 -4 -27 -2 -52 3 -26
0 -51 -7 -60 -8 -9 -9 -17 -2 -24 7 -7 14 10 22 52 7 34 19 72 26 83 9 13 15
54 16 109 2 117 19 131 33 27 5 -34 4 -41 -5 -30 -9 13 -10 12 -5 -3 3 -11 9
-31 13 -45 7 -27 7 -27 14 8 4 19 12 53 18 75 8 32 7 43 -5 56 -12 13 -14 29
-9 64 7 45 8 46 23 23 19 -27 32 -38 50 -38 17 0 15 35 -3 50 -9 7 -14 18 -12
25 7 16 -14 41 -41 49 -12 4 -22 12 -22 17 0 22 -19 6 -22 -18 l-4 -28 -18 36
c-20 40 -81 86 -69 52 5 -14 0 -13 -21 6 -22 20 -28 22 -39 11 -9 -10 -9 -11
1 -6 7 4 12 1 12 -8 0 -28 -20 -17 -26 14 -4 17 -10 30 -14 30 -8 0 -60 114
-60 134 0 7 9 16 20 19 11 3 18 2 15 -3 -3 -4 2 -13 9 -19 12 -10 13 -9 9 7
-2 11 0 23 6 26 8 5 8 13 1 27 -6 11 -8 24 -5 29 6 10 52 3 70 -11 15 -11 148
-60 152 -55 2 2 7 147 10 322 3 176 9 323 13 327 4 5 16 4 26 -1 23 -12 240
-35 274 -29 14 2 36 9 50 15 24 10 24 11 -10 12 l-35 2 28 10 c30 11 35 29 11
52 -8 9 -13 20 -10 24 3 5 -1 20 -9 35 -8 15 -11 27 -7 27 4 0 -4 9 -18 20
-14 11 -19 20 -12 20 17 0 15 20 -2 20 -7 0 -14 12 -14 28 -5 111 -16 200 -28
216 -8 11 -10 24 -5 30 5 6 11 35 15 64 5 42 4 53 -9 58 -19 8 -75 -14 -76
-30 -1 -6 -5 0 -9 14 -4 14 -8 67 -9 117 -1 98 12 133 50 133 20 0 79 -55 79
-73 0 -6 8 4 19 23 15 29 24 35 52 35 34 1 34 1 37 53 3 55 2 56 -68 64 -21 3
-26 10 -31 43 l-5 40 -5 -35 -4 -35 -65 0 -65 0 -5 125 c-5 122 -4 126 20 157
14 18 30 33 35 33 6 0 25 -16 44 -35 l33 -35 20 25 c22 28 50 32 68 10 17 -21
27 -19 33 6 4 15 11 20 25 17 17 -5 18 2 18 86 l-1 91 28 3 c15 2 25 8 21 13
-7 13 15 41 27 33 5 -3 9 4 9 15 0 12 -4 21 -10 21 -5 0 -10 7 -10 16 0 12 6
15 26 10 15 -4 33 -13 40 -21 18 -18 54 -7 54 16 0 11 5 19 10 19 13 0 13 -27
0 -35 -6 -4 -7 -11 -4 -17 4 -6 2 -8 -4 -4 -17 10 -32 -25 -19 -45 8 -13 5
-23 -11 -44 -26 -32 -29 -97 -7 -135 8 -14 14 -36 15 -49 0 -18 3 -22 11 -14
5 5 10 43 11 83 1 94 17 114 84 104 l44 -6 0 86 c0 85 0 86 -24 86 -14 0 -28
-5 -31 -10 -5 -8 -11 -7 -21 1 -7 6 -30 9 -49 7 -19 -2 -35 0 -35 4 0 4 -5 8
-11 8 -5 0 -7 -6 -3 -12 6 -10 4 -10 -8 0 -12 9 -42 12 -102 10 -47 -2 -86 0
-86 4 0 4 -21 8 -46 8 -47 0 -84 13 -84 31 0 11 256 3 350 -11 30 -4 76 -6
103 -3 l47 6 0 48 c0 44 -2 49 -22 49 -45 0 -404 20 -480 26 -72 6 -76 8 -69
27 18 48 -60 121 -140 132 -51 7 -135 58 -124 75 4 6 -4 9 -17 7 -33 -3 -35
37 -4 96 14 26 22 47 17 47 -4 0 -8 13 -8 30 0 16 -7 38 -17 49 -21 24 -99 46
-148 42 -33 -2 -39 1 -48 23 -16 42 -86 66 -210 73 -58 2 -118 11 -135 18 -96
42 -114 47 -179 43 -50 -2 -66 0 -66 10 0 26 31 43 127 68 53 14 99 27 102 30
14 14 -81 -5 -207 -42 -22 -6 -23 -5 -21 58 1 51 -4 77 -26 126 -15 34 -25 68
-21 77 3 10 2 14 -5 10 -5 -4 -26 9 -45 29 -28 29 -40 35 -60 30 -14 -4 -24
-2 -24 5 0 6 8 8 18 5 14 -5 14 -3 -2 10 -23 19 -51 22 -40 4 5 -8 2 -9 -12
-3 -55 23 -147 30 -194 15z m75 -50 c-11 -5 -27 -9 -35 -9 -9 0 -8 4 5 9 11 5
27 9 35 9 9 0 8 -4 -5 -9z m255 -45 c0 -12 -19 -12 -23 0 -4 9 -1 12 9 8 7 -3
14 -7 14 -8z m47 -111 c-2 -3 -13 13 -24 35 -11 22 -17 43 -14 47 3 3 14 -13
24 -36 10 -23 17 -44 14 -46z m-137 37 c-14 -11 -41 -33 -60 -50 -37 -32 -50
-38 -50 -21 0 6 6 10 13 10 8 0 7 4 -3 10 -9 6 -10 10 -3 10 6 0 18 6 25 14
19 19 70 45 88 45 10 0 6 -6 -10 -18z m77 -22 c6 -13 14 -44 16 -68 4 -37 0
-48 -20 -67 -13 -12 -19 -24 -13 -26 7 -2 7 -13 -1 -36 -6 -17 -14 -30 -18
-28 -4 3 -15 -4 -24 -15 -19 -21 -9 -26 13 -6 8 6 0 -5 -19 -25 -19 -20 -37
-37 -40 -36 -19 2 -31 -3 -26 -11 7 -12 -32 -34 -46 -26 -5 4 -17 1 -26 -7
-14 -11 -15 -10 -8 12 7 23 51 69 67 70 9 0 58 46 58 54 0 3 -23 -9 -51 -29
-54 -37 -80 -46 -59 -20 7 8 10 24 7 36 -10 36 14 142 37 168 27 30 118 91
131 87 6 -1 15 -13 22 -27z m73 -71 c0 -10 -4 -18 -10 -18 -5 0 -10 15 -10 33
0 24 3 28 10 17 5 -8 10 -23 10 -32z m-296 -29 c-3 -5 -10 -6 -16 -3 -7 5 -9
2 -5 -8 3 -10 -6 -26 -23 -43 -16 -15 -34 -40 -40 -56 -7 -16 -16 -29 -21 -29
-14 0 -21 41 -8 56 6 8 9 17 7 20 -3 3 -12 -9 -19 -25 -8 -17 -18 -31 -22 -31
-5 0 -5 -5 -2 -11 4 -5 -1 -19 -11 -30 -15 -16 -15 -19 -1 -19 8 0 18 6 20 13
4 8 6 7 6 -3 0 -8 -4 -22 -9 -30 -7 -11 -10 -11 -10 -2 0 7 -4 10 -10 7 -5 -3
-10 -17 -10 -30 0 -13 -4 -26 -9 -30 -13 -8 -19 26 -9 54 7 19 5 22 -7 17 -35
-13 10 79 59 122 19 16 33 32 31 34 -2 2 5 5 17 5 11 1 28 8 37 16 29 25 70
30 55 6z m13 -57 c-6 -8 -12 -23 -14 -33 -8 -55 -99 -179 -121 -165 -15 9 -4
36 14 36 8 0 15 6 15 13 1 6 3 22 4 34 1 13 8 29 15 38 7 8 9 15 4 15 -5 0 -4
4 1 8 6 4 26 26 44 50 24 31 36 40 42 31 4 -8 3 -19 -4 -27z m233 -12 c0 -11
-4 -20 -9 -20 -5 0 -7 9 -4 20 3 11 7 20 9 20 2 0 4 -9 4 -20z m60 6 c0 -8 -7
-16 -15 -20 -15 -5 -21 14 -8 27 11 12 23 8 23 -7z m14 -107 c-4 -8 0 -7 15 1
28 14 106 9 107 -7 3 -24 4 -25 18 -14 10 8 23 8 52 -3 l39 -13 -40 -7 c-23
-4 -53 -2 -69 3 -15 6 -25 8 -22 3 2 -4 -22 -8 -55 -8 -52 -1 -57 1 -46 14 10
13 9 15 -5 9 -20 -7 -21 -6 -12 17 3 9 10 16 16 16 5 0 6 -5 2 -11z m821 -449
c3 -5 -3 -10 -14 -10 -11 0 -23 5 -26 10 -3 6 3 10 14 10 11 0 23 -4 26 -10z
m-2188 -25 c8 -9 13 -19 9 -22 -7 -7 -36 16 -36 28 0 13 10 11 27 -6z m2557
-184 c8 -12 -49 -25 -65 -15 -8 5 -7 9 2 15 18 12 56 11 63 0z m226 -10 l25
-7 -31 -11 c-33 -12 -130 -1 -148 17 -12 12 113 13 154 1z m-280 -85 c0 -9 -8
-12 -25 -8 -37 7 -41 22 -6 22 20 0 31 -5 31 -14z m-2665 -81 c0 -5 -16 -10
-37 -11 -27 -1 -35 2 -31 13 6 16 68 14 68 -2z m2819 -10 c-4 -9 -1 -15 7 -15
10 0 10 -3 2 -11 -6 -6 -16 -8 -21 -5 -12 7 -4 46 9 46 5 0 6 -7 3 -15z m66 5
c0 -5 -7 -7 -15 -4 -8 4 -15 8 -15 10 0 2 7 4 15 4 8 0 15 -4 15 -10z m-20
-48 c0 -14 -39 -46 -47 -39 -3 4 2 16 12 27 19 21 35 26 35 12z m-2286 -153
c-10 -11 -12 -19 -6 -19 6 0 13 4 16 9 3 5 20 14 38 20 17 6 28 8 25 4 -8 -7
21 -43 35 -43 4 0 8 8 8 18 1 15 2 14 12 -3 6 -11 12 -21 13 -23 1 -1 14 2 29
7 24 10 26 8 26 -15 0 -14 4 -22 10 -19 6 3 10 -1 10 -9 0 -9 -6 -13 -13 -10
-8 3 -20 -2 -27 -11 -7 -8 -19 -15 -27 -15 -9 0 -11 -5 -7 -12 6 -10 4 -10 -7
-2 -23 17 -71 35 -64 24 3 -6 -4 -10 -18 -10 -13 0 -27 -3 -31 -7 -4 -4 -22
-6 -41 -4 -18 1 -44 -3 -57 -10 -22 -12 -95 -20 -111 -12 -13 7 13 44 30 41 9
-2 18 3 20 10 3 6 -4 13 -14 13 -16 1 -16 2 -1 6 16 4 34 39 30 56 -1 4 6 7
16 7 9 0 35 12 56 25 30 18 43 21 53 13 11 -9 11 -14 -3 -29z m1414 -57 c2 -7
-5 -12 -15 -13 -10 0 -13 -3 -5 -6 6 -2 12 -10 12 -16 0 -7 -6 -5 -15 4 -9 9
-13 23 -9 33 7 18 25 17 32 -2z m552 -97 c3 -22 5 -78 5 -125 l0 -85 -42 -3
-43 -3 0 -55 c0 -40 4 -54 14 -54 8 0 30 -16 50 -35 33 -32 36 -39 36 -95 0
-33 -3 -60 -7 -60 -19 1 -31 17 -35 45 -2 23 -9 31 -27 33 -13 2 -26 12 -28
23 -3 10 -12 19 -19 19 -11 0 -14 26 -14 129 0 123 1 131 22 145 12 9 18 16
13 16 -6 0 -6 3 0 8 12 8 35 91 35 123 0 14 5 19 18 17 12 -2 19 -16 22 -43z
m-1181 -12 c-16 -71 -91 -100 -97 -37 -2 25 2 32 25 43 15 7 35 17 43 22 31
17 38 10 29 -28z m-985 11 c4 -10 1 -14 -6 -12 -15 5 -23 28 -10 28 5 0 13 -7
16 -16z m-587 -10 c-3 -3 -12 -4 -19 -1 -8 3 -5 6 6 6 11 1 17 -2 13 -5z
m1288 -104 c3 -5 1 -10 -4 -10 -6 0 -11 5 -11 10 0 6 2 10 4 10 3 0 8 -4 11
-10z m65 -20 c0 -5 -4 -10 -10 -10 -5 0 -10 5 -10 10 0 6 5 10 10 10 6 0 10
-4 10 -10z m-1964 -139 c-8 -97 -19 -151 -28 -136 -5 10 7 162 17 203 12 49
17 17 11 -67z m479 74 c199 -11 252 -17 261 -29 8 -12 13 -13 22 -4 9 9 12 9
12 1 0 -7 -5 -15 -10 -18 -6 -4 -7 -11 -4 -17 4 -6 10 -5 15 3 6 10 9 8 9 -9
0 -16 24 -48 70 -94 39 -39 70 -67 70 -64 0 4 9 2 20 -4 11 -6 18 -15 15 -21
-4 -5 -11 -7 -16 -4 -5 4 -9 -2 -9 -12 0 -17 -9 -18 -132 -11 -73 3 -137 3
-141 -2 -5 -4 -3 -18 5 -31 7 -13 14 -26 15 -27 1 -2 16 -1 34 3 23 5 28 10
18 16 -9 6 35 8 111 7 l125 -3 0 -40 c0 -28 -4 -40 -15 -41 -8 -1 -21 -2 -27
-3 -14 -1 -18 -47 -5 -55 5 -3 16 -40 26 -83 33 -141 36 -138 50 52 7 96 25
191 41 221 8 16 15 39 15 52 0 26 17 30 23 5 3 -13 5 -11 6 6 2 40 15 13 26
-52 8 -52 13 -62 32 -65 12 -2 33 4 46 13 33 21 101 10 125 -20 10 -12 24 -25
32 -28 8 -4 3 -5 -12 -2 -16 3 -28 1 -28 -5 0 -5 7 -10 16 -10 9 0 12 -5 8
-11 -4 -7 -1 -10 7 -7 15 5 49 -28 49 -47 0 -14 -69 -70 -85 -70 -5 0 -11 -10
-13 -21 -2 -12 -12 -24 -23 -27 -12 -3 -17 -11 -13 -21 4 -11 0 -16 -14 -16
-21 0 -38 -36 -20 -42 6 -2 -6 -21 -26 -42 -20 -21 -36 -44 -36 -50 -1 -22
-30 28 -31 53 -1 21 -2 22 -6 6 -3 -11 -10 -26 -15 -32 -7 -9 -6 -13 3 -13 11
-1 10 -3 -2 -13 -9 -7 -14 -18 -11 -26 3 -10 -2 -12 -20 -8 -16 4 -27 1 -34
-11 -12 -18 -11 -83 1 -120 6 -18 4 -21 -9 -16 -18 7 -23 -20 -6 -31 6 -4 7
-23 4 -47 -4 -22 -3 -43 3 -47 22 -15 51 -80 58 -129 4 -30 2 -74 -5 -105 -6
-28 -13 -61 -15 -73 -4 -18 -10 -20 -42 -17 -21 3 -49 4 -63 4 -35 -2 -170 0
-200 2 -15 1 -26 9 -28 20 -3 14 4 17 39 17 51 0 41 20 -11 23 l-34 2 -13 -80
c-7 -44 -12 -96 -12 -115 1 -19 -5 -51 -13 -70 -11 -24 -16 -76 -17 -170 -2
-155 -8 -198 -28 -222 -17 -19 -50 -13 -33 7 5 6 7 15 4 18 -4 3 -6 35 -6 71
0 51 -3 66 -14 66 -13 0 -19 20 -15 45 2 5 5 78 7 162 4 101 2 153 -5 153 -12
0 -25 -82 -18 -110 4 -15 0 -20 -13 -20 -11 0 -22 -4 -25 -10 -9 -15 -25 -12
-25 5 0 12 -7 14 -26 9 -23 -6 -25 -4 -22 17 2 16 9 23 19 21 20 -3 24 21 40
255 10 142 10 179 -1 213 -9 28 -17 37 -24 30 -7 -7 -6 -14 2 -22 7 -7 12 -19
12 -27 0 -11 -5 -8 -16 7 -18 25 -18 49 -10 272 8 208 -8 164 -24 -65 -6 -99
-16 -188 -22 -198 -7 -14 -16 -17 -31 -12 -12 3 -38 8 -57 10 -43 5 -94 23
-67 24 9 1 17 7 17 15 0 10 -9 12 -40 6 -29 -5 -40 -4 -40 5 0 11 -37 28 -65
29 -18 1 -35 24 -35 48 0 32 11 45 39 49 l23 4 -26 28 c-14 15 -26 32 -26 38
0 20 42 8 67 -20 29 -31 33 -30 113 9 10 4 17 27 20 64 l5 57 22 -20 22 -20
11 35 c8 24 17 34 26 30 17 -7 18 6 2 22 -9 9 -8 12 7 12 18 0 18 1 -2 22 -21
20 -24 21 -70 6 -28 -9 -54 -12 -63 -7 -8 4 -37 11 -63 14 -39 5 -50 11 -57
31 -13 34 -3 53 28 52 114 -2 214 6 219 18 7 19 -21 44 -51 44 -14 0 -26 5
-26 10 0 6 -11 15 -25 20 -27 10 -34 30 -11 30 9 0 16 18 20 50 5 40 12 53 29
59 12 5 29 5 38 0 9 -4 24 -6 35 -3 11 3 33 -2 49 -10 38 -20 55 -20 55 -1 0
17 -1 17 -75 33 -27 6 -90 21 -140 32 -49 11 -100 23 -112 25 -12 3 -31 19
-43 35 -17 24 -18 29 -5 24 14 -6 16 1 14 50 -2 39 -7 56 -16 56 -7 0 -13 7
-13 15 0 8 -4 15 -10 15 -5 0 -10 7 -10 15 0 19 37 19 365 0z m660 -130 c0
-14 -6 -25 -12 -25 -7 0 -13 -5 -13 -11 0 -5 -5 -7 -10 -4 -6 4 -4 12 5 21 8
9 15 22 15 30 0 8 3 14 8 14 4 0 7 -11 7 -25z m818 -8 c10 -16 11 -25 3 -33
-6 -7 -19 -23 -29 -37 -18 -25 -57 -39 -76 -28 -6 4 -8 22 -4 44 4 27 10 37
24 37 11 0 19 6 19 14 0 14 14 24 36 25 7 1 18 -9 27 -22z m-1018 -57 c3 -5 1
-10 -4 -10 -6 0 -11 5 -11 10 0 6 2 10 4 10 3 0 8 -4 11 -10z m2179 -17 c3
-16 12 -59 21 -98 30 -138 38 -281 21 -380 l-15 -90 2 68 c2 37 -1 67 -5 67
-4 0 -8 -8 -9 -17 0 -15 -2 -15 -8 2 -6 15 -3 21 13 27 14 4 16 6 5 7 -17 1
-49 41 -49 61 0 5 -14 23 -31 39 -19 18 -28 35 -23 42 5 9 1 11 -14 7 -12 -4
-20 -2 -16 3 3 5 0 9 -5 9 -6 0 -11 7 -11 15 0 8 -7 15 -15 15 -7 0 -19 8 -24
18 -9 15 -12 15 -22 2 -9 -13 -10 -12 -5 3 3 9 1 17 -4 17 -6 0 -10 9 -10 20
0 11 -4 20 -10 20 -5 0 -10 -5 -10 -12 0 -6 -3 -8 -7 -5 -3 4 2 15 11 26 11
12 13 20 6 23 -14 4 -2 38 14 38 6 0 22 12 35 25 26 28 38 30 65 10 19 -15 36
-12 36 6 0 6 -4 8 -9 5 -5 -4 -16 -3 -24 0 -21 8 -10 33 12 27 9 -2 23 3 30
11 21 25 48 19 55 -11z m-1149 -90 c10 -15 19 -43 20 -63 3 -50 21 -79 53 -86
49 -10 54 -14 65 -44 6 -17 15 -30 19 -30 4 0 8 -7 8 -15 0 -8 5 -15 10 -15 6
0 10 -6 10 -14 0 -7 19 -26 43 -42 82 -55 124 -119 75 -112 -20 3 -23 -1 -20
-29 3 -28 0 -33 -17 -33 -20 0 -26 11 -21 35 1 6 -1 7 -5 4 -3 -4 -16 3 -29
15 -17 16 -20 27 -15 47 6 24 4 28 -23 33 -26 5 -29 8 -18 21 15 18 10 18 -24
5 -20 -7 -24 -6 -19 5 3 8 -2 18 -11 21 -9 3 -16 13 -16 21 0 24 -25 44 -39
30 -16 -16 -14 -44 4 -51 16 -6 21 -36 6 -36 -5 0 -12 -13 -16 -30 -6 -27 -15
-35 -37 -31 -52 8 -158 8 -158 0 0 -14 -20 -33 -55 -52 -17 -9 -25 -16 -18
-17 7 0 -4 -16 -24 -35 -34 -33 -35 -37 -23 -61 8 -14 28 -42 45 -62 18 -20
38 -48 45 -61 12 -23 10 -27 -16 -47 -15 -13 -31 -21 -34 -19 -8 5 -50 -32
-50 -44 0 -5 -7 -12 -16 -15 -12 -4 -15 -2 -10 9 4 12 -3 11 -35 -5 -22 -12
-43 -19 -48 -16 -4 3 -23 -9 -41 -26 -39 -35 -65 -29 -65 16 -1 14 -6 31 -13
38 -16 16 -15 45 1 51 8 4 6 6 -4 6 -9 1 -21 18 -29 42 l-14 41 -17 -34 c-10
-18 -18 -45 -19 -60 0 -16 -4 -28 -10 -28 -5 0 -16 -12 -23 -26 -9 -17 -17
-23 -21 -15 -4 6 -2 11 4 11 8 0 10 9 6 26 -5 19 -3 24 5 18 9 -5 10 -1 7 14
-4 12 0 26 8 33 8 6 14 22 14 35 0 22 -2 23 -22 12 -13 -7 -31 -19 -40 -27
-16 -12 -18 -12 -18 2 0 10 7 17 15 17 11 0 15 12 16 48 0 26 2 62 3 80 4 32
3 32 -33 27 l-36 -6 27 17 c15 10 33 31 39 47 9 21 14 25 20 15 6 -10 9 -8 9
6 0 36 39 66 86 66 33 0 47 5 58 22 8 12 13 25 10 29 -8 13 16 50 27 43 6 -3
9 -19 7 -35 -7 -48 16 -27 24 21 4 24 13 47 20 52 20 12 39 10 36 -4 -1 -7 10
-25 25 -40 32 -32 34 -43 8 -45 -11 -1 -18 5 -17 14 2 24 -21 27 -34 3 -10
-19 -17 -71 -19 -147 -1 -36 -17 -43 -37 -15 -12 16 -14 16 -28 -3 -21 -28
-20 -45 4 -45 11 0 20 5 20 10 0 6 8 10 17 10 15 0 14 -2 -3 -15 -19 -14 -18
-14 4 -15 12 0 22 -4 22 -9 0 -5 -9 -7 -20 -4 -11 3 -20 0 -20 -6 0 -6 -10
-11 -22 -11 -21 0 -21 1 -3 13 17 13 17 14 -6 20 -18 5 -28 1 -41 -16 -10 -12
-18 -26 -18 -31 0 -16 94 2 156 31 l62 27 5 52 c6 57 22 94 61 139 28 32 50
85 36 85 -5 0 -12 -5 -15 -11 -4 -6 -14 -8 -22 -5 -8 3 -11 1 -8 -5 4 -5 4
-17 1 -26 -5 -12 -9 -13 -20 -4 -10 8 -16 9 -21 1 -7 -11 -25 -4 -25 11 0 5 8
9 19 9 18 0 35 31 32 58 -1 6 6 12 16 12 17 1 17 1 1 11 -17 9 -17 12 3 38 14
19 27 27 40 24 12 -3 21 1 25 12 10 25 76 95 89 95 7 0 17 11 23 25 15 33 45
32 67 -2z m-2006 -140 c-3 -57 -25 -196 -30 -183 -7 23 12 200 22 200 5 0 9
-8 8 -17z m3485 -42 c-6 -6 -24 19 -24 34 1 6 7 1 15 -9 8 -11 12 -22 9 -25z
m-3089 9 c18 -1 18 -2 3 -11 -20 -11 -68 -2 -68 13 0 6 10 8 23 4 12 -3 31 -6
42 -6z m-268 -182 c-3 -7 -5 -2 -5 12 0 14 2 19 5 13 2 -7 2 -19 0 -25z m1370
6 c-3 -3 -12 -4 -19 -1 -8 3 -5 6 6 6 11 1 17 -2 13 -5z m-203 -38 c-7 -17
-34 -23 -34 -6 0 9 32 31 38 26 1 -2 0 -11 -4 -20z m-22 -33 c24 -22 23 -31
-4 -30 -13 1 -34 -3 -46 -7 -22 -7 -23 -6 -12 13 6 12 8 26 5 31 -10 17 37 11
57 -7z m68 7 c0 -5 -4 -10 -10 -10 -5 0 -10 5 -10 10 0 6 5 10 10 10 6 0 10
-4 10 -10z m590 -12 c0 -18 -2 -20 -9 -8 -6 8 -7 18 -5 22 9 14 14 9 14 -14z
m1334 -60 l21 -18 -25 9 c-16 5 -26 17 -27 32 -2 14 0 18 4 9 3 -8 16 -22 27
-32z m66 -66 c9 -27 21 -42 31 -42 15 0 47 -27 38 -33 -2 -2 -23 -8 -46 -13
l-41 -11 9 25 c10 26 3 66 -10 57 -11 -6 -33 44 -25 56 11 19 29 3 44 -39z
m-2052 -3 c-2 -6 -8 -10 -13 -10 -5 0 -11 4 -13 10 -2 6 4 11 13 11 9 0 15 -5
13 -11z m-1322 -16 c-3 -10 -10 -74 -16 -143 -13 -149 -44 -465 -62 -640 -7
-69 -14 -116 -16 -105 -3 24 57 728 78 903 0 1 5 2 11 2 6 0 8 -8 5 -17z
m1359 7 c3 -5 -1 -10 -9 -10 -9 0 -16 5 -16 10 0 6 4 10 9 10 6 0 13 -4 16
-10z m2175 -76 c0 -20 -13 -17 -27 5 -10 16 -9 18 8 14 10 -3 19 -12 19 -19z
m-1576 -94 c26 -9 38 -50 15 -50 -6 0 -28 -13 -49 -30 -21 -16 -42 -30 -47
-30 -6 0 -20 -9 -33 -20 -13 -12 -32 -18 -46 -16 -13 3 -25 -1 -28 -7 -2 -7
-5 -2 -5 11 -1 23 42 76 53 65 3 -4 6 -2 6 3 0 6 18 18 41 28 22 10 38 21 35
24 -7 6 13 32 25 32 4 0 19 -4 33 -10z m-414 -151 c-7 -11 -14 -19 -16 -16 -7
7 7 37 17 37 6 0 5 -9 -1 -21z m1680 -29 c0 -5 -4 -10 -10 -10 -5 0 -10 5 -10
10 0 6 5 10 10 10 6 0 10 -4 10 -10z m-3 -92 c-3 -8 -6 -5 -6 6 -1 11 2 17 5
13 3 -3 4 -12 1 -19z m-1345 -50 c-9 -9 -15 -9 -24 0 -9 9 -7 12 12 12 19 0
21 -3 12 -12z m-732 -33 c7 -4 -4 -182 -12 -190 -4 -4 -51 -7 -104 -6 -54 1
-96 -1 -93 -4 3 -2 48 -6 100 -7 l94 -3 3 -42 c3 -39 2 -42 -33 -53 -39 -13
-134 -85 -173 -131 -13 -15 -38 -31 -55 -34 -18 -4 -43 -14 -55 -22 -13 -8
-27 -12 -30 -8 -3 3 -5 45 -4 93 4 148 17 202 49 202 14 0 13 4 -5 20 -12 12
-22 29 -22 40 0 34 19 70 37 71 14 0 13 2 -4 9 -16 7 -23 18 -23 38 0 16 3 32
6 35 7 6 313 -1 324 -8z m-500 -194 c0 -5 -4 -11 -9 -13 -5 -1 -11 -48 -14
-103 -4 -55 -9 -134 -13 -176 l-6 -76 31 -22 c17 -12 31 -28 31 -36 0 -12 -79
-85 -101 -93 -10 -4 -32 46 -25 57 3 4 8 72 11 152 4 79 10 178 13 219 6 68 9
75 30 78 12 2 22 8 22 13 0 5 7 9 15 9 8 0 15 -4 15 -9z m697 -63 c-6 -4 -22
-8 -34 -8 -18 0 -23 6 -23 24 0 13 3 32 7 42 6 15 10 13 35 -16 20 -25 24 -36
15 -42z m544 -58 c15 0 32 -6 38 -14 6 -8 25 -19 41 -26 17 -7 30 -16 30 -21
0 -4 12 -20 26 -36 18 -19 22 -29 12 -32 -7 -2 -17 -10 -21 -17 -13 -23 -42
-16 -60 16 -10 17 -22 30 -27 30 -15 0 -24 -24 -12 -28 16 -5 5 -22 -15 -22
-9 0 -13 6 -10 14 6 15 -20 26 -60 26 -13 0 -23 5 -23 10 0 6 -12 9 -27 8 -45
-5 -43 35 3 83 34 35 39 37 58 23 11 -7 32 -14 47 -14z m253 -103 c3 3 6 -3 6
-15 0 -11 5 -24 10 -27 13 -8 13 -35 0 -35 -5 0 -12 11 -16 25 -5 20 -9 23
-19 15 -8 -7 -15 -7 -19 -1 -3 5 0 12 6 14 7 3 3 6 -9 6 -13 1 -23 5 -23 10 0
14 23 19 41 10 9 -5 19 -5 23 -2z m-608 -42 c-9 -23 -26 -9 -26 23 0 24 1 25
16 10 10 -9 14 -24 10 -33z m-1652 -354 c-8 -101 -16 -186 -19 -189 -8 -8 -6
45 6 207 10 141 15 178 23 170 2 -2 -3 -87 -10 -188z m2240 83 c27 -10 19 -34
-11 -33 -25 0 -26 1 -8 9 19 8 19 9 -2 9 -13 1 -23 6 -23 11 0 11 20 13 44 4z
m33 -16 c-3 -8 -6 -5 -6 6 -1 11 2 17 5 13 3 -3 4 -12 1 -19z m33 -32 c-7 -20
-4 -32 15 -61 26 -38 31 -55 16 -55 -5 0 -17 -3 -25 -6 -12 -5 -16 -1 -14 17
2 15 -4 27 -20 34 -20 11 -21 13 -7 25 10 9 14 22 11 36 -4 16 -1 24 11 27 10
3 19 5 20 6 1 0 -2 -10 -7 -23z m-270 -138 c0 -5 -4 -8 -10 -8 -5 0 -10 10
-10 23 0 18 2 19 10 7 5 -8 10 -18 10 -22z m-93 -80 c-3 -8 -6 -5 -6 6 -1 11
2 17 5 13 3 -3 4 -12 1 -19z m393 -23 c0 -8 -4 -15 -10 -15 -5 0 -7 7 -4 15 4
8 8 15 10 15 2 0 4 -7 4 -15z m577 -437 c-3 -8 -6 -5 -6 6 -1 11 2 17 5 13 3
-3 4 -12 1 -19z"/>
<path d="M1303 3733 c9 -2 23 -2 30 0 6 3 -1 5 -18 5 -16 0 -22 -2 -12 -5z"/>
<path d="M964 3644 c-4 -10 -9 -23 -12 -28 -3 -5 1 -6 8 -1 10 6 12 -1 7 -35
-4 -30 -2 -39 5 -32 10 10 13 100 4 110 -3 3 -9 -4 -12 -14z"/>
<path d="M998 3580 c-12 -38 -10 -66 3 -53 6 6 9 26 7 44 -3 32 -3 33 -10 9z"/>
<path d="M840 3295 c0 -8 7 -15 16 -15 14 0 14 3 4 15 -7 8 -14 15 -16 15 -2
0 -4 -7 -4 -15z"/>
<path d="M837 3204 c-10 -11 3 -24 24 -24 10 0 19 7 19 15 0 15 -31 21 -43 9z"/>
<path d="M630 3141 c0 -5 5 -13 10 -16 6 -3 10 -2 10 4 0 5 -4 13 -10 16 -5 3
-10 2 -10 -4z"/>
<path d="M1032 3065 c0 -16 2 -22 5 -12 2 9 2 23 0 30 -3 6 -5 -1 -5 -18z"/>
<path d="M1102 2805 c0 -16 2 -22 5 -12 2 9 2 23 0 30 -3 6 -5 -1 -5 -18z"/>
<path d="M1240 2816 c6 -6 22 -5 42 1 l33 10 -42 -1 c-26 0 -39 -4 -33 -10z"/>
<path d="M1354 2795 c-3 -14 -11 -25 -17 -25 -7 0 -7 -4 1 -12 10 -10 15 -10
22 2 8 13 10 12 10 -3 0 -26 32 -18 47 12 10 22 9 26 -14 38 -35 18 -42 17
-49 -12z"/>
<path d="M1092 2690 c0 -14 2 -19 5 -12 2 6 2 18 0 25 -3 6 -5 1 -5 -13z"/>
<path d="M3601 3864 c0 -11 3 -14 6 -6 3 7 2 16 -1 19 -3 4 -6 -2 -5 -13z"/>
<path d="M2525 3570 c3 -5 8 -10 11 -10 2 0 4 5 4 10 0 6 -5 10 -11 10 -5 0
-7 -4 -4 -10z"/>
<path d="M1996 3404 c-9 -24 -7 -28 9 -14 17 14 20 30 6 30 -5 0 -12 -7 -15
-16z"/>
<path d="M2705 3390 c3 -5 8 -10 11 -10 2 0 4 5 4 10 0 6 -5 10 -11 10 -5 0
-7 -4 -4 -10z"/>
<path d="M1973 3357 c1 -6 -8 -13 -20 -15 -17 -3 -22 -9 -21 -28 3 -31 32 -28
36 4 2 12 10 22 17 22 23 0 26 17 5 23 -11 3 -18 0 -17 -6z"/>
<path d="M1875 3290 c-3 -5 -1 -10 4 -10 6 0 11 5 11 10 0 6 -2 10 -4 10 -3 0
-8 -4 -11 -10z"/>
<path d="M1910 3263 c0 -16 5 -20 20 -16 11 3 20 10 20 15 0 5 -5 6 -11 2 -6
-3 -15 0 -20 7 -7 11 -9 9 -9 -8z"/>
<path d="M1305 2610 c28 -12 115 -12 115 -1 0 6 -30 10 -67 9 -46 0 -61 -3
-48 -8z"/>
<path d="M1280 2490 c0 -6 17 -10 37 -10 43 0 41 5 -4 13 -19 4 -33 2 -33 -3z"/>
<path d="M2535 5745 l-30 -25 38 21 c20 11 37 23 37 25 0 10 -17 2 -45 -21z"/>
<path d="M3178 5593 c7 -3 16 -2 19 1 4 3 -2 6 -13 5 -11 0 -14 -3 -6 -6z"/>
<path d="M99 5503 c-7 -17 -13 -23 -16 -15 -4 10 -9 9 -24 -4 -15 -13 -22 -15
-31 -6 -23 23 -28 11 -28 -77 l0 -89 58 -4 c31 -2 60 -2 63 1 4 3 10 34 13 67
6 56 5 62 -14 67 -27 7 -26 43 1 50 12 3 19 11 17 18 -8 24 -28 20 -39 -8z"/>
<path d="M1600 5302 c0 -4 9 -8 20 -8 11 0 20 4 20 8 0 4 -9 8 -20 8 -11 0
-20 -4 -20 -8z"/>
<path d="M2 5271 c-1 -27 1 -28 44 -27 37 1 44 4 43 21 0 11 -3 14 -6 7 -4
-10 -8 -10 -21 0 -8 7 -18 13 -21 13 -3 0 -5 3 -3 8 1 4 -6 7 -16 7 -14 0 -19
-8 -20 -29z"/>
<path d="M100 5259 c0 -11 5 -17 10 -14 6 3 10 13 10 21 0 8 -4 14 -10 14 -5
0 -10 -9 -10 -21z"/>
<path d="M0 4810 c0 -294 2 -339 15 -334 22 9 28 38 50 229 8 72 16 182 19
245 2 63 7 129 10 145 4 18 3 23 -2 12 -6 -15 -10 -14 -25 13 -12 20 -26 30
-43 30 l-24 0 0 -340z"/>
<path d="M1445 5081 c-3 -5 -1 -12 5 -16 5 -3 10 1 10 9 0 18 -6 21 -15 7z"/>
<path d="M966 4617 c3 -10 9 -15 12 -12 3 3 0 11 -7 18 -10 9 -11 8 -5 -6z"/>
<path d="M4291 4614 c0 -11 3 -14 6 -6 3 7 2 16 -1 19 -3 4 -6 -2 -5 -13z"/>
<path d="M4310 4582 c0 -7 -11 -12 -24 -12 -23 0 -42 -32 -30 -52 11 -17 24
-7 25 20 l1 27 12 -27 12 -28 12 32 c8 21 8 36 2 42 -7 7 -10 6 -10 -2z"/>
<path d="M4280 4385 c0 -8 5 -15 10 -15 6 0 10 7 10 15 0 8 -4 15 -10 15 -5 0
-10 -7 -10 -15z"/>
<path d="M4210 4370 c0 -18 2 -19 20 -8 11 7 20 16 20 20 0 5 -9 8 -20 8 -13
0 -20 -7 -20 -20z"/>
<path d="M4227 4304 c-8 -8 1 -24 14 -24 5 0 9 7 9 15 0 15 -12 20 -23 9z"/>
<path d="M3770 3021 c0 -19 6 -31 18 -34 9 -3 51 -20 92 -37 59 -25 83 -30
115 -25 105 16 145 17 150 3 3 -7 6 -121 8 -253 2 -219 3 -240 20 -243 11 -2
17 3 17 16 0 11 7 22 15 26 8 3 15 12 15 21 0 30 25 14 43 -28 21 -52 22 -77
2 -77 -8 0 -15 -7 -15 -15 0 -9 -11 -20 -24 -25 -26 -10 -28 -28 -6 -55 8 -9
19 -27 25 -39 18 -35 135 -84 135 -56 0 6 7 10 15 10 9 0 15 -9 15 -25 0 -19
9 -29 38 -42 20 -9 40 -19 45 -21 4 -2 7 78 7 177 0 114 -4 181 -10 181 -5 0
-19 9 -31 21 -11 11 -29 21 -39 22 -11 1 -17 3 -15 5 7 7 -85 102 -177 181
l-37 32 1 87 c0 93 -6 128 -28 179 l-15 33 -92 -2 c-51 0 -112 2 -135 6 -30 5
-42 4 -37 -3 3 -6 13 -11 21 -11 8 0 14 -4 14 -10 0 -5 9 -10 19 -10 11 0 23
-4 26 -10 11 -17 -21 -11 -107 20 -45 17 -83 30 -85 30 -2 0 -3 -13 -3 -29z
m626 -652 c10 -12 18 -23 16 -25 -1 -2 1 -16 4 -30 4 -14 2 -35 -3 -47 -10
-21 -11 -21 -28 13 -11 19 -20 42 -21 50 -2 8 -10 20 -18 26 -9 6 -16 16 -16
23 0 19 46 12 66 -10z"/>
<path d="M3760 2511 c0 -71 0 -71 33 -85 17 -7 36 -11 42 -8 5 3 4 7 -3 10
-19 6 -42 58 -42 95 0 19 -7 40 -15 47 -13 11 -15 3 -15 -59z"/>
<path d="M4106 2324 c-4 -9 -5 -18 -4 -19 6 -5 47 -25 51 -25 4 0 3 26 -2 53
-2 14 -39 7 -45 -9z"/>
<path d="M3944 1985 c-4 -8 -4 -30 -1 -48 3 -17 -2 -66 -10 -107 -12 -56 -14
-98 -8 -165 10 -118 8 -161 -9 -196 -8 -16 -10 -29 -5 -29 5 0 9 -4 9 -10 0
-5 -11 -10 -25 -10 -14 0 -25 -4 -25 -10 0 -5 11 -10 24 -10 24 0 24 -2 19
-54 -3 -33 -1 -56 5 -60 14 -9 4 -36 -14 -36 -8 0 -12 -9 -9 -27 5 -38 15 -63
26 -63 5 0 9 -16 9 -35 0 -26 3 -33 15 -29 21 8 19 -13 -2 -25 -11 -6 -13 -11
-5 -11 9 0 11 -16 7 -62 -3 -34 -2 -58 1 -55 8 7 23 89 54 277 11 69 29 175
40 235 20 116 24 167 14 226 -5 31 -11 38 -36 43 -29 6 -30 8 -25 43 4 20 11
39 17 43 6 4 13 45 15 92 4 82 3 86 -18 92 -37 10 -57 7 -63 -9z m49 -155 c-3
-12 -8 -19 -11 -16 -5 6 5 36 12 36 2 0 2 -9 -1 -20z m-66 -502 c-3 -8 -6 -5
-6 6 -1 11 2 17 5 13 3 -3 4 -12 1 -19z m20 -180 c-3 -7 -5 -2 -5 12 0 14 2
19 5 13 2 -7 2 -19 0 -25z"/>
<path d="M3591 1874 c0 -11 3 -14 6 -6 3 7 2 16 -1 19 -3 4 -6 -2 -5 -13z"/>
<path d="M3565 1841 c-3 -5 -1 -12 5 -16 5 -3 10 1 10 9 0 18 -6 21 -15 7z"/>
<path d="M3680 1791 c0 -25 6 -27 13 -6 4 8 2 17 -3 20 -6 4 -10 -3 -10 -14z"/>
<path d="M2561 1664 c0 -11 3 -14 6 -6 3 7 2 16 -1 19 -3 4 -6 -2 -5 -13z"/>
<path d="M3860 1349 c0 -11 5 -17 10 -14 6 3 10 13 10 21 0 8 -4 14 -10 14 -5
0 -10 -9 -10 -21z"/>
<path d="M1985 1308 c4 -13 11 -27 16 -33 5 -5 4 5 -2 23 -12 36 -24 44 -14
10z"/>
<path d="M2168 1273 c7 -3 16 -2 19 1 4 3 -2 6 -13 5 -11 0 -14 -3 -6 -6z"/>
<path d="M3553 1268 c-5 -7 -38 -70 -73 -140 -34 -71 -67 -128 -71 -128 -5 0
-9 -8 -9 -19 0 -10 -7 -24 -15 -31 -8 -7 -14 -20 -13 -29 2 -8 -2 -16 -8 -16
-13 0 -38 -25 -46 -45 -9 -25 -99 -140 -109 -140 -5 0 -9 -9 -9 -21 0 -11 -4
-18 -9 -14 -13 7 -51 -43 -51 -67 0 -10 -7 -21 -15 -24 -8 -4 -15 -12 -15 -19
0 -7 -5 -15 -11 -17 -8 -3 -10 -16 -5 -41 6 -33 10 -37 29 -32 12 4 31 17 42
29 11 12 34 32 52 45 18 12 38 37 44 56 7 19 21 37 30 40 10 4 21 14 24 25 3
10 12 21 20 24 8 3 15 12 15 21 0 8 5 15 10 15 6 0 10 7 10 15 0 8 9 24 20 35
11 11 20 24 20 28 0 4 6 14 13 21 6 6 13 16 13 21 1 6 2 15 3 21 0 5 6 7 11 4
6 -3 10 3 10 15 0 14 4 19 12 14 8 -5 9 -2 5 9 -3 10 -2 17 2 17 5 0 19 30 32
68 12 37 25 72 30 77 4 6 6 23 5 38 -2 15 0 30 5 32 9 6 24 113 17 121 -3 2
-9 -1 -15 -8z"/>
<path d="M2190 1230 c0 -5 5 -10 11 -10 5 0 7 5 4 10 -3 6 -8 10 -11 10 -2 0
-4 -4 -4 -10z"/>
<path d="M3741 1202 c0 -13 -5 -21 -9 -18 -10 6 -108 -239 -135 -339 -5 -22
-13 -42 -17 -45 -4 -3 -12 -18 -18 -35 -6 -16 -20 -57 -32 -90 -12 -33 -26
-80 -30 -105 -5 -25 -18 -72 -29 -104 -12 -33 -19 -61 -16 -64 2 -3 -2 -14
-10 -26 -8 -11 -15 -39 -15 -63 0 -23 -4 -44 -9 -47 -8 -6 -26 -100 -22 -123
1 -7 -5 -25 -12 -40 -8 -16 -12 -34 -10 -40 3 -7 0 -13 -6 -13 -6 0 -11 -11
-11 -25 0 -24 3 -25 53 -25 60 0 77 12 77 51 0 15 6 30 13 32 6 3 7 6 1 6 -13
1 -5 63 10 73 8 5 7 8 -1 8 -7 0 -13 7 -13 16 0 10 6 14 15 10 12 -4 15 3 17
32 2 51 2 55 13 72 5 8 8 22 7 31 -1 8 4 29 13 45 8 16 15 43 15 61 0 18 9 56
19 85 11 29 22 73 24 98 2 25 9 56 14 70 11 28 27 101 25 113 -1 4 2 7 8 7 14
0 12 27 -2 34 -10 5 -10 7 0 12 6 3 12 22 12 43 0 20 7 47 16 59 8 12 13 31 9
41 -3 11 -1 22 5 26 6 3 8 10 5 15 -3 5 4 41 15 79 12 39 20 78 17 88 -4 14
-5 13 -6 -5z m-131 -612 c0 -5 -5 -10 -11 -10 -5 0 -7 5 -4 10 3 6 8 10 11 10
2 0 4 -4 4 -10z"/>
<path d="M2952 766 c-50 -36 -51 -41 -5 -17 23 11 44 25 48 31 10 16 -8 11
-43 -14z"/>
<path d="M3064 499 c-18 -22 -26 -57 -19 -79 9 -29 27 -25 19 5 -5 19 -2 25
10 25 9 0 16 -6 16 -12 0 -9 4 -8 10 2 7 10 5 18 -4 25 -8 6 -15 19 -17 29 -3
16 -6 17 -15 5z"/>
<path d="M3011 428 c-1 -14 -4 -28 -8 -31 -5 -2 -2 -2 5 -1 6 2 12 -4 12 -12
0 -10 -6 -14 -15 -10 -9 3 -15 0 -15 -8 0 -8 9 -16 20 -19 17 -4 20 0 19 26
-1 18 -5 43 -9 57 l-8 25 -1 -27z"/>
<path d="M2976 318 c3 -4 11 -5 19 -1 21 7 19 12 -4 10 -11 0 -18 -5 -15 -9z"/>
<path d="M3922 84 c-7 -8 -10 -19 -6 -26 5 -7 10 -3 16 12 10 28 7 33 -10 14z"/>
<path d="M3930 14 c0 -8 5 -12 10 -9 6 3 10 10 10 16 0 5 -4 9 -10 9 -5 0 -10
-7 -10 -16z"/>
</g>
</svg>
